<svg width="18" height="16" viewBox="0 0 18 16" fill="none" xmlns="http://www.w3.org/2000/svg">
<path fill-rule="evenodd" clip-rule="evenodd" d="M4.20239 9.64092C4.23796 9.65295 4.27385 9.6614 4.30972 9.6666C4.34883 9.75857 4.39936 9.87744 4.45831 10.0165C4.60218 10.3558 4.79604 10.8147 4.99614 11.2935C5.40421 12.2698 5.81584 13.2763 5.90675 13.5644C6.01929 13.9205 6.13825 14.1627 6.26811 14.328C6.33525 14.4135 6.41292 14.4881 6.50379 14.5446C6.54954 14.573 6.59785 14.5964 6.64829 14.6137C6.65052 14.6146 6.65274 14.6153 6.65496 14.616C6.91497 14.7142 7.15203 14.6733 7.30045 14.6233C7.37986 14.5965 7.44411 14.5643 7.48965 14.5381C7.51288 14.5247 7.53249 14.5123 7.54814 14.5017L7.55183 14.4993L9.8481 13.0672L12.5006 15.1008C12.5397 15.1307 12.5824 15.1559 12.6276 15.1757C12.9462 15.3147 13.2548 15.3632 13.5451 15.3235C13.8349 15.284 14.0649 15.1623 14.2362 15.0252C14.4039 14.8911 14.5176 14.7407 14.5884 14.6291C14.6245 14.5721 14.6517 14.5216 14.6709 14.483C14.6804 14.4636 14.6882 14.4469 14.6942 14.4335L14.7018 14.4157L14.7047 14.4088L14.706 14.4058L14.7064 14.4045L14.707 14.4032C14.7209 14.3683 14.7316 14.3322 14.7389 14.2954L17.1604 2.08723C17.1681 2.04819 17.172 2.00847 17.172 1.96867C17.172 1.61116 17.0373 1.27121 16.7205 1.06492C16.4498 0.88861 16.1482 0.881021 15.9577 0.895484C15.752 0.911092 15.5622 0.961849 15.4348 1.0024C15.3685 1.02351 15.3128 1.04387 15.2728 1.05941C15.2526 1.06721 15.2361 1.07392 15.2238 1.07903L15.2146 1.08291L1.63466 6.4101L1.6329 6.41075C1.62425 6.41392 1.61313 6.41806 1.59993 6.42318C1.57364 6.43342 1.5384 6.4478 1.49725 6.46649C1.41699 6.50289 1.30439 6.55968 1.18885 6.63882C1.00425 6.76524 0.579731 7.11145 0.651215 7.68288C0.708245 8.13878 1.02055 8.41876 1.21083 8.55339C1.31531 8.62733 1.41458 8.68014 1.48686 8.71459C1.5204 8.73052 1.59003 8.75879 1.62024 8.77114L1.62786 8.77423L4.20239 9.64092ZM15.6898 2.20514L15.6879 2.20596C15.6811 2.20891 15.6744 2.21172 15.6675 2.21441L2.07109 7.54809C2.06399 7.55085 2.05684 7.55353 2.04964 7.55605L2.04208 7.55889C2.03338 7.56231 2.01873 7.56824 2.00036 7.57652C1.98993 7.58124 1.97905 7.58644 1.96796 7.59196C1.9832 7.60057 1.99778 7.60797 2.01074 7.61414C2.02318 7.62007 2.03267 7.62414 2.03786 7.62625L4.59125 8.48587C4.63798 8.50164 4.68155 8.52244 4.72154 8.54762L13.1527 3.61208L13.1606 3.60741C13.1667 3.60378 13.1748 3.59912 13.1845 3.59365C13.2036 3.5828 13.23 3.56837 13.2613 3.5524C13.3198 3.52262 13.4135 3.47841 13.519 3.44582C13.5923 3.42312 13.8089 3.35919 14.043 3.43427C14.1874 3.48061 14.337 3.58023 14.4343 3.74898C14.4826 3.83283 14.5084 3.91705 14.5209 3.99415C14.554 4.1156 14.5487 4.23553 14.5228 4.33907C14.4669 4.56211 14.3103 4.73608 14.1677 4.86915C14.0455 4.98324 12.4648 6.50736 10.9056 8.01194C10.1279 8.76221 9.35832 9.50516 8.78299 10.0604L8.40518 10.4252L13.1761 14.0829C13.2855 14.1221 13.3502 14.1202 13.3801 14.116C13.4158 14.1111 13.445 14.0974 13.4748 14.0736C13.5081 14.047 13.5373 14.0109 13.559 13.9765L13.5599 13.9751L15.9085 2.13458C15.8736 2.14296 15.8383 2.15293 15.8044 2.16374C15.7659 2.17598 15.7342 2.18765 15.7132 2.1958C15.7027 2.19984 15.6953 2.2029 15.6912 2.20459L15.6898 2.20514ZM8.815 12.2752L7.86316 11.5454L7.63257 13.0126L8.815 12.2752ZM6.99002 10.0974L7.93653 9.18357C8.51186 8.62823 9.28162 7.88527 10.0593 7.13485L10.8495 6.37256L5.55195 9.47371L5.58037 9.54074C5.72475 9.88126 5.91947 10.3422 6.12063 10.8235C6.27105 11.1834 6.42834 11.5623 6.5716 11.9132L6.80157 10.4503C6.82374 10.3093 6.89264 10.1873 6.99002 10.0974Z" fill="white"/>
</svg>
