<svg width="16" height="16" viewBox="0 0 16 16" fill="none" xmlns="http://www.w3.org/2000/svg">
<path fill-rule="evenodd" clip-rule="evenodd" d="M13.2024 2.82681C12.5267 2.14665 11.7228 1.60734 10.8371 1.24011C9.95151 0.87289 9.00181 0.685056 8.04306 0.687493C4.02281 0.687493 0.750063 3.95943 0.748438 7.98131C0.748438 9.26668 1.084 10.5212 1.72181 11.6278L0.6875 15.4067L4.55419 14.3919C5.62376 14.9742 6.82204 15.2795 8.03981 15.28H8.04306C12.0625 15.28 15.3353 12.0081 15.3369 7.98618C15.3396 7.02782 15.1524 6.07842 14.7861 5.19285C14.4197 4.30728 13.8815 3.50311 13.2024 2.82681ZM8.04306 14.0491H8.04063C6.95473 14.0492 5.88883 13.757 4.95475 13.2032L4.73375 13.0716L2.43925 13.6737L3.05106 11.4369L2.90725 11.2077C2.30014 10.2412 1.97875 9.12269 1.98019 7.98131C1.98181 4.63868 4.70125 1.91924 8.0455 1.91924C8.84195 1.91747 9.63085 2.07368 10.3665 2.37883C11.1022 2.68398 11.7701 3.13201 12.3314 3.69699C12.8958 4.25928 13.3432 4.92785 13.6476 5.66405C13.952 6.40026 14.1075 7.18951 14.1051 7.98618C14.1035 11.3288 11.3841 14.0491 8.04306 14.0491ZM11.3686 9.50799C11.1858 9.41618 10.2904 8.97581 10.1231 8.91487C9.9565 8.85393 9.83544 8.82387 9.71356 9.00587C9.59169 9.18787 9.24231 9.59818 9.13588 9.72006C9.02944 9.84193 8.923 9.85656 8.741 9.76556C8.559 9.67456 7.97156 9.48199 7.27525 8.86124C6.73331 8.37781 6.36769 7.78143 6.26125 7.59862C6.15481 7.41581 6.24988 7.31749 6.34169 7.22649C6.42375 7.14524 6.52369 7.01362 6.61469 6.90718C6.70569 6.80074 6.73575 6.72518 6.79669 6.60331C6.85763 6.48143 6.82756 6.37499 6.78125 6.28399C6.73575 6.19218 6.37094 5.29518 6.219 4.93037C6.07194 4.57693 5.92163 4.62406 5.8095 4.61918C5.69338 4.61443 5.57716 4.61226 5.46094 4.61268C5.36852 4.61504 5.27759 4.63646 5.19384 4.67561C5.11009 4.71476 5.03533 4.77078 4.97425 4.84018C4.80688 5.02299 4.33644 5.46337 4.33644 6.36037C4.33644 7.25737 4.98969 8.12431 5.08069 8.24618C5.17169 8.36806 6.36606 10.2084 8.19419 10.9981C8.62969 11.1858 8.96931 11.2979 9.23338 11.3824C9.66969 11.5214 10.067 11.5011 10.3814 11.4547C10.7316 11.4027 11.4596 11.0144 11.6116 10.5886C11.7635 10.1629 11.7635 9.79806 11.718 9.72168C11.6725 9.64531 11.5498 9.59899 11.3686 9.50799Z" fill="white"/>
</svg>
