<svg width="18" height="12" viewBox="0 0 18 12" fill="none" xmlns="http://www.w3.org/2000/svg">
<mask id="path-1-outside-1_172_11408" maskUnits="userSpaceOnUse" x="-0.078125" y="-0.234375" width="18" height="12" fill="black">
<rect fill="white" x="-0.078125" y="-0.234375" width="18" height="12"/>
<path fill-rule="evenodd" clip-rule="evenodd" d="M16.8409 9.09469C16.467 8.34153 15.9743 7.65355 15.3817 7.05714C15.1801 6.82271 14.9436 6.59136 14.7591 6.41083L14.7333 6.38559C14.6381 6.29237 14.5594 6.21503 14.495 6.14841C15.3053 5.02173 15.9987 3.81534 16.5646 2.54778L16.5874 2.49663L16.6034 2.44296C16.6777 2.19347 16.7634 1.71905 16.4604 1.2903C16.1472 0.847156 15.6458 0.767234 15.31 0.767234H13.7651C13.4431 0.752474 13.1242 0.839539 12.854 1.01655C12.5817 1.19489 12.3735 1.45504 12.2589 1.75913C11.9262 2.55161 11.5099 3.30539 11.0176 4.00786V2.19747C11.0176 1.96346 10.9956 1.57199 10.745 1.24157C10.445 0.84596 10.0111 0.767234 9.70991 0.767234H7.25862C6.9428 0.759933 6.63565 0.872855 6.3996 1.08366C6.15788 1.29953 6.00973 1.60108 5.9866 1.92436L5.98441 1.95498V1.98568C5.98441 2.31945 6.11667 2.56565 6.22233 2.72049C6.26964 2.78981 6.32024 2.85292 6.3522 2.89277L6.35957 2.90197C6.39365 2.94447 6.4164 2.97284 6.43923 3.00389C6.49929 3.08558 6.58567 3.21153 6.61011 3.53745V4.55011C6.18751 3.85541 5.7417 2.93095 5.40627 1.94362L5.40112 1.92846L5.39542 1.91351C5.31178 1.69446 5.17764 1.37573 4.90897 1.13183C4.5951 0.846895 4.22387 0.767234 3.88625 0.767234H2.31879C1.97723 0.767234 1.56546 0.847143 1.25823 1.17124C0.956094 1.48996 0.921875 1.87186 0.921875 2.07491V2.16644L0.941152 2.25591C1.37531 4.27106 2.2699 6.15817 3.55463 7.76967C4.13709 8.68817 4.92634 9.4581 5.85959 10.0177C6.80773 10.5862 7.87738 10.9213 8.98041 10.9954L9.00914 10.9973H9.03802C9.53701 10.9973 10.0572 10.9543 10.4484 10.6936C10.9762 10.342 11.0176 9.80185 11.0176 9.53269V8.75039C11.153 8.85984 11.3211 9.00724 11.5268 9.20531C11.7754 9.45418 11.9734 9.66985 12.1433 9.85809L12.2339 9.95888L12.2344 9.95943C12.3663 10.1063 12.4961 10.2509 12.6143 10.3697C12.7628 10.519 12.946 10.6836 13.1762 10.8051C13.4255 10.9368 13.6872 10.9963 13.9651 10.9963H15.5337C15.8641 10.9963 16.338 10.9181 16.6713 10.5318C17.0344 10.1108 17.0067 9.59478 16.8925 9.22394L16.8719 9.15725L16.8409 9.09469ZM12.9089 9.16729C12.7324 8.97156 12.5195 8.73953 12.2504 8.47051L12.2482 8.46831C11.3158 7.5694 10.8802 7.41279 10.5722 7.41279C10.4083 7.41279 10.227 7.43121 10.1094 7.57772C10.0539 7.64688 10.0247 7.73034 10.0084 7.81731C9.99199 7.90414 9.98636 8.0061 9.98636 8.12222V9.53269C9.98636 9.70787 9.95755 9.78143 9.87656 9.83547C9.76862 9.90738 9.53797 9.96568 9.04379 9.96609C8.10577 9.90216 7.19628 9.61678 6.3899 9.13326C5.58187 8.64878 4.9005 7.97922 4.40191 7.17979L4.39649 7.17113L4.39006 7.16309C3.19294 5.67307 2.35877 3.92518 1.95333 2.05751C1.95553 1.96747 1.97504 1.91406 2.00664 1.88072C2.03921 1.84636 2.11812 1.79848 2.31879 1.79848H3.88625C4.06062 1.79848 4.15086 1.83641 4.2158 1.89537C4.28944 1.96222 4.3533 2.07573 4.43088 2.27841C4.81561 3.41003 5.33589 4.46829 5.82856 5.24641C6.07481 5.63533 6.31716 5.95907 6.53551 6.1878C6.64451 6.30206 6.75141 6.39666 6.85342 6.46397C6.95216 6.52908 7.0641 6.58043 7.17921 6.58043C7.23996 6.58043 7.31101 6.57418 7.37942 6.54386C7.45301 6.51134 7.51013 6.45703 7.55046 6.38422C7.62181 6.25552 7.64136 6.06488 7.64136 5.81511V3.50256L7.64102 3.49713C7.60538 2.93452 7.43552 2.61805 7.27012 2.39306C7.23387 2.34375 7.19812 2.29922 7.16684 2.26024L7.15828 2.24957C7.12393 2.20674 7.0966 2.17213 7.07415 2.13922C7.033 2.07892 7.01705 2.03687 7.01574 1.99182C7.02111 1.93835 7.04632 1.88873 7.08652 1.85283C7.12824 1.81557 7.18284 1.79617 7.23874 1.79848H9.70991C9.85161 1.79848 9.89932 1.83305 9.92331 1.86472C9.95721 1.90942 9.98636 2.00239 9.98636 2.19747V5.31089C9.98636 5.6807 10.1569 5.93109 10.4044 5.93109C10.6893 5.93109 10.8947 5.75825 11.2538 5.3991L11.2598 5.39312L11.2652 5.38652C12.0701 4.40498 12.728 3.31142 13.2176 2.14023L13.2207 2.13145C13.2576 2.02797 13.3272 1.93937 13.4191 1.87917C13.511 1.81898 13.62 1.7905 13.7296 1.79808L13.7356 1.79848H15.31C15.5247 1.79848 15.5954 1.85313 15.6182 1.88545C15.6425 1.91983 15.6594 1.99353 15.6181 2.13805C15.0536 3.40058 14.3556 4.59899 13.5361 5.71315L13.531 5.72099C13.4514 5.84268 13.3642 5.97729 13.3515 6.13184C13.338 6.2978 13.4098 6.44871 13.5354 6.61041C13.627 6.74578 13.8159 6.93064 14.0075 7.11819L14.0256 7.13586C14.2264 7.33249 14.444 7.54548 14.6187 7.75173L14.6234 7.75716L14.6285 7.76224C15.1493 8.28172 15.5823 8.88225 15.9108 9.54033C15.9632 9.71949 15.9311 9.81106 15.8903 9.85829C15.8427 9.91357 15.7359 9.96506 15.5337 9.96506H13.9651C13.8426 9.96506 13.7481 9.94093 13.6577 9.89322C13.5636 9.84351 13.4668 9.76445 13.3454 9.64242C13.2477 9.54411 13.1408 9.42517 13.0105 9.28018C12.9782 9.24422 12.9444 9.20654 12.9089 9.16729Z"/>
</mask>
<path fill-rule="evenodd" clip-rule="evenodd" d="M16.8409 9.09469C16.467 8.34153 15.9743 7.65355 15.3817 7.05714C15.1801 6.82271 14.9436 6.59136 14.7591 6.41083L14.7333 6.38559C14.6381 6.29237 14.5594 6.21503 14.495 6.14841C15.3053 5.02173 15.9987 3.81534 16.5646 2.54778L16.5874 2.49663L16.6034 2.44296C16.6777 2.19347 16.7634 1.71905 16.4604 1.2903C16.1472 0.847156 15.6458 0.767234 15.31 0.767234H13.7651C13.4431 0.752474 13.1242 0.839539 12.854 1.01655C12.5817 1.19489 12.3735 1.45504 12.2589 1.75913C11.9262 2.55161 11.5099 3.30539 11.0176 4.00786V2.19747C11.0176 1.96346 10.9956 1.57199 10.745 1.24157C10.445 0.84596 10.0111 0.767234 9.70991 0.767234H7.25862C6.9428 0.759933 6.63565 0.872855 6.3996 1.08366C6.15788 1.29953 6.00973 1.60108 5.9866 1.92436L5.98441 1.95498V1.98568C5.98441 2.31945 6.11667 2.56565 6.22233 2.72049C6.26964 2.78981 6.32024 2.85292 6.3522 2.89277L6.35957 2.90197C6.39365 2.94447 6.4164 2.97284 6.43923 3.00389C6.49929 3.08558 6.58567 3.21153 6.61011 3.53745V4.55011C6.18751 3.85541 5.7417 2.93095 5.40627 1.94362L5.40112 1.92846L5.39542 1.91351C5.31178 1.69446 5.17764 1.37573 4.90897 1.13183C4.5951 0.846895 4.22387 0.767234 3.88625 0.767234H2.31879C1.97723 0.767234 1.56546 0.847143 1.25823 1.17124C0.956094 1.48996 0.921875 1.87186 0.921875 2.07491V2.16644L0.941152 2.25591C1.37531 4.27106 2.2699 6.15817 3.55463 7.76967C4.13709 8.68817 4.92634 9.4581 5.85959 10.0177C6.80773 10.5862 7.87738 10.9213 8.98041 10.9954L9.00914 10.9973H9.03802C9.53701 10.9973 10.0572 10.9543 10.4484 10.6936C10.9762 10.342 11.0176 9.80185 11.0176 9.53269V8.75039C11.153 8.85984 11.3211 9.00724 11.5268 9.20531C11.7754 9.45418 11.9734 9.66985 12.1433 9.85809L12.2339 9.95888L12.2344 9.95943C12.3663 10.1063 12.4961 10.2509 12.6143 10.3697C12.7628 10.519 12.946 10.6836 13.1762 10.8051C13.4255 10.9368 13.6872 10.9963 13.9651 10.9963H15.5337C15.8641 10.9963 16.338 10.9181 16.6713 10.5318C17.0344 10.1108 17.0067 9.59478 16.8925 9.22394L16.8719 9.15725L16.8409 9.09469ZM12.9089 9.16729C12.7324 8.97156 12.5195 8.73953 12.2504 8.47051L12.2482 8.46831C11.3158 7.5694 10.8802 7.41279 10.5722 7.41279C10.4083 7.41279 10.227 7.43121 10.1094 7.57772C10.0539 7.64688 10.0247 7.73034 10.0084 7.81731C9.99199 7.90414 9.98636 8.0061 9.98636 8.12222V9.53269C9.98636 9.70787 9.95755 9.78143 9.87656 9.83547C9.76862 9.90738 9.53797 9.96568 9.04379 9.96609C8.10577 9.90216 7.19628 9.61678 6.3899 9.13326C5.58187 8.64878 4.9005 7.97922 4.40191 7.17979L4.39649 7.17113L4.39006 7.16309C3.19294 5.67307 2.35877 3.92518 1.95333 2.05751C1.95553 1.96747 1.97504 1.91406 2.00664 1.88072C2.03921 1.84636 2.11812 1.79848 2.31879 1.79848H3.88625C4.06062 1.79848 4.15086 1.83641 4.2158 1.89537C4.28944 1.96222 4.3533 2.07573 4.43088 2.27841C4.81561 3.41003 5.33589 4.46829 5.82856 5.24641C6.07481 5.63533 6.31716 5.95907 6.53551 6.1878C6.64451 6.30206 6.75141 6.39666 6.85342 6.46397C6.95216 6.52908 7.0641 6.58043 7.17921 6.58043C7.23996 6.58043 7.31101 6.57418 7.37942 6.54386C7.45301 6.51134 7.51013 6.45703 7.55046 6.38422C7.62181 6.25552 7.64136 6.06488 7.64136 5.81511V3.50256L7.64102 3.49713C7.60538 2.93452 7.43552 2.61805 7.27012 2.39306C7.23387 2.34375 7.19812 2.29922 7.16684 2.26024L7.15828 2.24957C7.12393 2.20674 7.0966 2.17213 7.07415 2.13922C7.033 2.07892 7.01705 2.03687 7.01574 1.99182C7.02111 1.93835 7.04632 1.88873 7.08652 1.85283C7.12824 1.81557 7.18284 1.79617 7.23874 1.79848H9.70991C9.85161 1.79848 9.89932 1.83305 9.92331 1.86472C9.95721 1.90942 9.98636 2.00239 9.98636 2.19747V5.31089C9.98636 5.6807 10.1569 5.93109 10.4044 5.93109C10.6893 5.93109 10.8947 5.75825 11.2538 5.3991L11.2598 5.39312L11.2652 5.38652C12.0701 4.40498 12.728 3.31142 13.2176 2.14023L13.2207 2.13145C13.2576 2.02797 13.3272 1.93937 13.4191 1.87917C13.511 1.81898 13.62 1.7905 13.7296 1.79808L13.7356 1.79848H15.31C15.5247 1.79848 15.5954 1.85313 15.6182 1.88545C15.6425 1.91983 15.6594 1.99353 15.6181 2.13805C15.0536 3.40058 14.3556 4.59899 13.5361 5.71315L13.531 5.72099C13.4514 5.84268 13.3642 5.97729 13.3515 6.13184C13.338 6.2978 13.4098 6.44871 13.5354 6.61041C13.627 6.74578 13.8159 6.93064 14.0075 7.11819L14.0256 7.13586C14.2264 7.33249 14.444 7.54548 14.6187 7.75173L14.6234 7.75716L14.6285 7.76224C15.1493 8.28172 15.5823 8.88225 15.9108 9.54033C15.9632 9.71949 15.9311 9.81106 15.8903 9.85829C15.8427 9.91357 15.7359 9.96506 15.5337 9.96506H13.9651C13.8426 9.96506 13.7481 9.94093 13.6577 9.89322C13.5636 9.84351 13.4668 9.76445 13.3454 9.64242C13.2477 9.54411 13.1408 9.42517 13.0105 9.28018C12.9782 9.24422 12.9444 9.20654 12.9089 9.16729Z" fill="white"/>
<path fill-rule="evenodd" clip-rule="evenodd" d="M16.8409 9.09469C16.467 8.34153 15.9743 7.65355 15.3817 7.05714C15.1801 6.82271 14.9436 6.59136 14.7591 6.41083L14.7333 6.38559C14.6381 6.29237 14.5594 6.21503 14.495 6.14841C15.3053 5.02173 15.9987 3.81534 16.5646 2.54778L16.5874 2.49663L16.6034 2.44296C16.6777 2.19347 16.7634 1.71905 16.4604 1.2903C16.1472 0.847156 15.6458 0.767234 15.31 0.767234H13.7651C13.4431 0.752474 13.1242 0.839539 12.854 1.01655C12.5817 1.19489 12.3735 1.45504 12.2589 1.75913C11.9262 2.55161 11.5099 3.30539 11.0176 4.00786V2.19747C11.0176 1.96346 10.9956 1.57199 10.745 1.24157C10.445 0.84596 10.0111 0.767234 9.70991 0.767234H7.25862C6.9428 0.759933 6.63565 0.872855 6.3996 1.08366C6.15788 1.29953 6.00973 1.60108 5.9866 1.92436L5.98441 1.95498V1.98568C5.98441 2.31945 6.11667 2.56565 6.22233 2.72049C6.26964 2.78981 6.32024 2.85292 6.3522 2.89277L6.35957 2.90197C6.39365 2.94447 6.4164 2.97284 6.43923 3.00389C6.49929 3.08558 6.58567 3.21153 6.61011 3.53745V4.55011C6.18751 3.85541 5.7417 2.93095 5.40627 1.94362L5.40112 1.92846L5.39542 1.91351C5.31178 1.69446 5.17764 1.37573 4.90897 1.13183C4.5951 0.846895 4.22387 0.767234 3.88625 0.767234H2.31879C1.97723 0.767234 1.56546 0.847143 1.25823 1.17124C0.956094 1.48996 0.921875 1.87186 0.921875 2.07491V2.16644L0.941152 2.25591C1.37531 4.27106 2.2699 6.15817 3.55463 7.76967C4.13709 8.68817 4.92634 9.4581 5.85959 10.0177C6.80773 10.5862 7.87738 10.9213 8.98041 10.9954L9.00914 10.9973H9.03802C9.53701 10.9973 10.0572 10.9543 10.4484 10.6936C10.9762 10.342 11.0176 9.80185 11.0176 9.53269V8.75039C11.153 8.85984 11.3211 9.00724 11.5268 9.20531C11.7754 9.45418 11.9734 9.66985 12.1433 9.85809L12.2339 9.95888L12.2344 9.95943C12.3663 10.1063 12.4961 10.2509 12.6143 10.3697C12.7628 10.519 12.946 10.6836 13.1762 10.8051C13.4255 10.9368 13.6872 10.9963 13.9651 10.9963H15.5337C15.8641 10.9963 16.338 10.9181 16.6713 10.5318C17.0344 10.1108 17.0067 9.59478 16.8925 9.22394L16.8719 9.15725L16.8409 9.09469ZM12.9089 9.16729C12.7324 8.97156 12.5195 8.73953 12.2504 8.47051L12.2482 8.46831C11.3158 7.5694 10.8802 7.41279 10.5722 7.41279C10.4083 7.41279 10.227 7.43121 10.1094 7.57772C10.0539 7.64688 10.0247 7.73034 10.0084 7.81731C9.99199 7.90414 9.98636 8.0061 9.98636 8.12222V9.53269C9.98636 9.70787 9.95755 9.78143 9.87656 9.83547C9.76862 9.90738 9.53797 9.96568 9.04379 9.96609C8.10577 9.90216 7.19628 9.61678 6.3899 9.13326C5.58187 8.64878 4.9005 7.97922 4.40191 7.17979L4.39649 7.17113L4.39006 7.16309C3.19294 5.67307 2.35877 3.92518 1.95333 2.05751C1.95553 1.96747 1.97504 1.91406 2.00664 1.88072C2.03921 1.84636 2.11812 1.79848 2.31879 1.79848H3.88625C4.06062 1.79848 4.15086 1.83641 4.2158 1.89537C4.28944 1.96222 4.3533 2.07573 4.43088 2.27841C4.81561 3.41003 5.33589 4.46829 5.82856 5.24641C6.07481 5.63533 6.31716 5.95907 6.53551 6.1878C6.64451 6.30206 6.75141 6.39666 6.85342 6.46397C6.95216 6.52908 7.0641 6.58043 7.17921 6.58043C7.23996 6.58043 7.31101 6.57418 7.37942 6.54386C7.45301 6.51134 7.51013 6.45703 7.55046 6.38422C7.62181 6.25552 7.64136 6.06488 7.64136 5.81511V3.50256L7.64102 3.49713C7.60538 2.93452 7.43552 2.61805 7.27012 2.39306C7.23387 2.34375 7.19812 2.29922 7.16684 2.26024L7.15828 2.24957C7.12393 2.20674 7.0966 2.17213 7.07415 2.13922C7.033 2.07892 7.01705 2.03687 7.01574 1.99182C7.02111 1.93835 7.04632 1.88873 7.08652 1.85283C7.12824 1.81557 7.18284 1.79617 7.23874 1.79848H9.70991C9.85161 1.79848 9.89932 1.83305 9.92331 1.86472C9.95721 1.90942 9.98636 2.00239 9.98636 2.19747V5.31089C9.98636 5.6807 10.1569 5.93109 10.4044 5.93109C10.6893 5.93109 10.8947 5.75825 11.2538 5.3991L11.2598 5.39312L11.2652 5.38652C12.0701 4.40498 12.728 3.31142 13.2176 2.14023L13.2207 2.13145C13.2576 2.02797 13.3272 1.93937 13.4191 1.87917C13.511 1.81898 13.62 1.7905 13.7296 1.79808L13.7356 1.79848H15.31C15.5247 1.79848 15.5954 1.85313 15.6182 1.88545C15.6425 1.91983 15.6594 1.99353 15.6181 2.13805C15.0536 3.40058 14.3556 4.59899 13.5361 5.71315L13.531 5.72099C13.4514 5.84268 13.3642 5.97729 13.3515 6.13184C13.338 6.2978 13.4098 6.44871 13.5354 6.61041C13.627 6.74578 13.8159 6.93064 14.0075 7.11819L14.0256 7.13586C14.2264 7.33249 14.444 7.54548 14.6187 7.75173L14.6234 7.75716L14.6285 7.76224C15.1493 8.28172 15.5823 8.88225 15.9108 9.54033C15.9632 9.71949 15.9311 9.81106 15.8903 9.85829C15.8427 9.91357 15.7359 9.96506 15.5337 9.96506H13.9651C13.8426 9.96506 13.7481 9.94093 13.6577 9.89322C13.5636 9.84351 13.4668 9.76445 13.3454 9.64242C13.2477 9.54411 13.1408 9.42517 13.0105 9.28018C12.9782 9.24422 12.9444 9.20654 12.9089 9.16729Z" stroke="white" stroke-width="0.4" mask="url(#path-1-outside-1_172_11408)"/>
</svg>
